<svg width="48" height="48" viewBox="0 0 48 48" fill="none" xmlns="http://www.w3.org/2000/svg">
<path d="M14 34C11.2333 34 8.87467 33.0247 6.924 31.074C4.97333 29.1233 3.99867 26.7653 4 24C4 21.2333 4.97533 18.8747 6.926 16.924C8.87667 14.9733 11.2347 13.9987 14 14H20C20.5667 14 21.042 14.192 21.426 14.576C21.81 14.96 22.0013 15.4347 22 16C22 16.5667 21.808 17.042 21.424 17.426C21.04 17.81 20.5653 18.0013 20 18H14C12.3333 18 10.9167 18.5833 9.75 19.75C8.58333 20.9167 8 22.3333 8 24C8 25.6667 8.58333 27.0833 9.75 28.25C10.9167 29.4167 12.3333 30 14 30H20C20.5667 30 21.042 30.192 21.426 30.576C21.81 30.96 22.0013 31.4347 22 32C22 32.5667 21.808 33.042 21.424 33.426C21.04 33.81 20.5653 34.0013 20 34H14ZM18 26C17.4333 26 16.958 25.808 16.574 25.424C16.19 25.04 15.9987 24.5653 16 24C16 23.4333 16.192 22.958 16.576 22.574C16.96 22.19 17.4347 21.9987 18 22H30C30.5667 22 31.042 22.192 31.426 22.576C31.81 22.96 32.0013 23.4347 32 24C32 24.5667 31.808 25.042 31.424 25.426C31.04 25.81 30.5653 26.0013 30 26H18ZM28 34C27.4333 34 26.958 33.808 26.574 33.424C26.19 33.04 25.9987 32.5653 26 32C26 31.4333 26.192 30.958 26.576 30.574C26.96 30.19 27.4347 29.9987 28 30H34C35.6667 30 37.0833 29.4167 38.25 28.25C39.4167 27.0833 40 25.6667 40 24C40 22.3333 39.4167 20.9167 38.25 19.75C37.0833 18.5833 35.6667 18 34 18H28C27.4333 18 26.958 17.808 26.574 17.424C26.19 17.04 25.9987 16.5653 26 16C26 15.4333 26.192 14.958 26.576 14.574C26.96 14.19 27.4347 13.9987 28 14H34C36.7667 14 39.1253 14.9753 41.076 16.926C43.0267 18.8767 44.0013 21.2347 44 24C44 26.7667 43.0247 29.1253 41.074 31.076C39.1233 33.0267 36.7653 34.0013 34 34H28Z" fill="#4e4e4e"/>
</svg>
