<svg width="48" height="48" viewBox="0 0 48 48" fill="none" xmlns="http://www.w3.org/2000/svg">
<path d="M24 40C28.2435 40 32.3131 38.3143 35.3137 35.3137C38.3143 32.3131 40 28.2435 40 24C40 19.7565 38.3143 15.6869 35.3137 12.6863C32.3131 9.68571 28.2435 8 24 8C19.7565 8 15.6869 9.68571 12.6863 12.6863C9.68571 15.6869 8 19.7565 8 24C8 28.2435 9.68571 32.3131 12.6863 35.3137C15.6869 38.3143 19.7565 40 24 40ZM24 44C12.954 44 4 35.046 4 24C4 12.954 12.954 4 24 4C35.046 4 44 12.954 44 24C44 35.046 35.046 44 24 44Z" fill="#000"/>
<path d="M24 33.232L20.318 21.9H27.682L24 33.232ZM24 33.232L15.156 21.9H20.316L24 33.232ZM15.156 21.9L24 33.232L14.314 26.196C14.1835 26.1012 14.0865 25.9674 14.0369 25.8139C13.9873 25.6605 13.9877 25.4952 14.038 25.342L15.158 21.898L15.156 21.9ZM15.156 21.9L17.376 15.074C17.4005 14.9972 17.4488 14.9302 17.5138 14.8827C17.5789 14.8352 17.6574 14.8096 17.738 14.8096C17.8186 14.8096 17.8971 14.8352 17.9621 14.8827C18.0272 14.9302 18.0755 14.9972 18.1 15.074L20.318 21.9L15.158 21.898L15.156 21.9ZM24 33.232L27.682 21.9L32.842 21.898L24 33.232ZM32.844 21.898L33.964 25.342C34.0139 25.4956 34.0136 25.6612 33.9633 25.8147C33.913 25.9682 33.8152 26.1017 33.684 26.196L24 33.232L32.844 21.898ZM32.844 21.898H27.684L29.9 15.072C29.924 14.9945 29.9722 14.9267 30.0375 14.8785C30.1028 14.8304 30.1818 14.8044 30.263 14.8044C30.3441 14.8044 30.4232 14.8304 30.4885 14.8785C30.5538 14.9267 30.602 14.9945 30.626 15.072L32.844 21.898Z" fill="#000"/>
</svg>
