<svg width="20" height="20" viewBox="0 0 20 20" fill="none" xmlns="http://www.w3.org/2000/svg">
<path d="M10 18C12.1217 18 14.1566 17.1571 15.6569 15.6569C17.1571 14.1566 18 12.1217 18 10C18 7.87827 17.1571 5.84344 15.6569 4.34315C14.1566 2.84285 12.1217 2 10 2C7.87827 2 5.84344 2.84285 4.34315 4.34315C2.84285 5.84344 2 7.87827 2 10C2 12.1217 2.84285 14.1566 4.34315 15.6569C5.84344 17.1571 7.87827 18 10 18ZM10 20C4.477 20 0 15.523 0 10C0 4.477 4.477 0 10 0C15.523 0 20 4.477 20 10C20 15.523 15.523 20 10 20Z" fill="#4E4E4E"/>
<path d="M10 14.6162L8.159 8.95015H11.841L10 14.6162ZM10 14.6162L5.578 8.95015H8.158L10 14.6162ZM5.578 8.95015L10 14.6162L5.157 11.0981C5.09177 11.0507 5.04326 10.9839 5.01846 10.9071C4.99366 10.8304 4.99385 10.7478 5.019 10.6711L5.579 8.94915L5.578 8.95015ZM5.578 8.95015L6.688 5.53715C6.70025 5.49877 6.72439 5.46527 6.75692 5.44151C6.78946 5.41774 6.82871 5.40493 6.869 5.40493C6.90929 5.40493 6.94854 5.41774 6.98107 5.44151C7.01361 5.46527 7.03774 5.49877 7.05 5.53715L8.159 8.95015L5.579 8.94915L5.578 8.95015ZM10 14.6162L11.841 8.95015L14.421 8.94915L10 14.6162ZM14.422 8.94915L14.982 10.6711C15.0069 10.748 15.0068 10.8307 14.9816 10.9075C14.9565 10.9842 14.9076 11.051 14.842 11.0981L10 14.6162L14.422 8.94915ZM14.422 8.94915H11.842L12.95 5.53615C12.962 5.49739 12.9861 5.46349 13.0188 5.43941C13.0514 5.41533 13.0909 5.40234 13.1315 5.40234C13.1721 5.40234 13.2116 5.41533 13.2442 5.43941C13.2769 5.46349 13.301 5.49739 13.313 5.53615L14.422 8.94915Z" fill="#4E4E4E"/>
</svg>
