<svg width="48" height="48" viewBox="0 0 48 48" fill="none" xmlns="http://www.w3.org/2000/svg">
<path d="M36 40L43.648 32.352C43.8731 32.1272 43.9997 31.8222 44 31.504V21C44 20.2044 43.6839 19.4413 43.1213 18.8787C42.5587 18.3161 41.7956 18 41 18C40.2044 18 39.4413 18.3161 38.8787 18.8787C38.3161 19.4413 38 20.2044 38 21V30" fill="#555555"/>
<path d="M36 40L43.648 32.352C43.8731 32.1272 43.9997 31.8222 44 31.504V21C44 20.2044 43.6839 19.4413 43.1213 18.8787C42.5587 18.3161 41.7956 18 41 18C40.2044 18 39.4413 18.3161 38.8787 18.8787C38.3161 19.4413 38 20.2044 38 21V30" stroke="#D9D9D9" stroke-width="1.5" stroke-linecap="round" stroke-linejoin="round"/>
<path d="M36 32L37.716 30.284C37.8062 30.194 37.8776 30.087 37.9264 29.9693C37.9751 29.8516 38.0001 29.7254 38 29.598C37.9997 29.4182 37.9494 29.2419 37.8548 29.089C37.7601 28.9361 37.6248 28.8125 37.464 28.732L36.578 28.29C35.8274 27.9147 34.9777 27.785 34.1493 27.9192C33.3209 28.0535 32.5557 28.4449 31.962 29.038L30.172 30.828C29.4218 31.578 29.0002 32.5952 29 33.656V40M12 40L4.352 32.352C4.12689 32.1272 4.00028 31.8222 4 31.504V21C4 20.2044 4.31607 19.4413 4.87868 18.8787C5.44129 18.3161 6.20435 18 7 18C7.79565 18 8.55871 18.3161 9.12132 18.8787C9.68393 19.4413 10 20.2044 10 21V30" fill="#555555"/>
<path d="M36 32L37.716 30.284C37.8062 30.194 37.8776 30.087 37.9264 29.9693C37.9751 29.8516 38.0001 29.7254 38 29.598C37.9997 29.4182 37.9494 29.2419 37.8548 29.089C37.7601 28.9361 37.6248 28.8125 37.464 28.732L36.578 28.29C35.8274 27.9147 34.9777 27.785 34.1493 27.9192C33.3209 28.0535 32.5557 28.4449 31.962 29.038L30.172 30.828C29.4218 31.578 29.0002 32.5952 29 33.656V40M12 40L4.352 32.352C4.12689 32.1272 4.00028 31.8222 4 31.504V21C4 20.2044 4.31607 19.4413 4.87868 18.8787C5.44129 18.3161 6.20435 18 7 18C7.79565 18 8.55871 18.3161 9.12132 18.8787C9.68393 19.4413 10 20.2044 10 21V30" stroke="#D9D9D9" stroke-width="1.5" stroke-linecap="round" stroke-linejoin="round"/>
<path d="M12 32L10.284 30.284C10.1939 30.1939 10.1225 30.087 10.0738 29.9692C10.025 29.8515 9.99997 29.7254 10 29.598C10 29.232 10.208 28.898 10.536 28.732L11.422 28.29C12.1726 27.9147 13.0223 27.785 13.8507 27.9192C14.6791 28.0535 15.4443 28.4449 16.038 29.038L17.828 30.828C18.5782 31.578 18.9998 32.5952 19 33.656V40M27.334 24H20.666V19.334H16V12.666H20.666V8H27.334V12.666H32V19.334H27.334V24Z" fill="#555555"/>
<path d="M12 32L10.284 30.284C10.1939 30.1939 10.1225 30.087 10.0738 29.9692C10.025 29.8515 9.99997 29.7254 10 29.598C10 29.232 10.208 28.898 10.536 28.732L11.422 28.29C12.1726 27.9147 13.0223 27.785 13.8507 27.9192C14.6791 28.0535 15.4443 28.4449 16.038 29.038L17.828 30.828C18.5782 31.578 18.9998 32.5952 19 33.656V40M27.334 24H20.666V19.334H16V12.666H20.666V8H27.334V12.666H32V19.334H27.334V24Z" stroke="#D9D9D9" stroke-width="1.5" stroke-linecap="round" stroke-linejoin="round"/>
</svg>
