<?xml version="1.0" encoding="UTF-8"?>
<svg version="1.1" xmlns="http://www.w3.org/2000/svg" width="225" height="225">
<path d="M0 0 C74.25 0 148.5 0 225 0 C225 74.25 225 148.5 225 225 C150.75 225 76.5 225 0 225 C0 150.75 0 76.5 0 0 Z " fill="#7F7F7F" transform="translate(0,0)"/>
<path d="M0 0 C74.25 0 148.5 0 225 0 C225 20.46 225 40.92 225 62 C189.10548617 62.30458791 189.10548617 62.30458791 175.8581543 62.40649414 C174.63587728 62.41590064 174.63587728 62.41590064 173.38890779 62.42549717 C167.34261054 62.47188575 161.29630702 62.5174055 155.25 62.5625 C153.97001216 62.57207426 153.97001216 62.57207426 152.66416597 62.58184195 C101.75367127 62.96160563 50.90834429 62.99820283 0 62 C0 41.54 0 21.08 0 0 Z " fill="#727374" transform="translate(0,0)"/>
<path d="M0 0 C74.25 0 148.5 0 225 0 C225 4.95 225 9.9 225 15 C150.75 15 76.5 15 0 15 C0 10.05 0 5.1 0 0 Z " fill="#7C7D7D" transform="translate(0,0)"/>
<path d="M0 0 C74.25 0 148.5 0 225 0 C225 0.99 225 1.98 225 3 C187.59857707 3.75844119 150.21643967 4.16436426 112.80639648 4.13037109 C106.42244503 4.12463464 100.03853498 4.12809025 93.65458488 4.13382339 C62.42313455 4.15739504 31.22019921 3.85398847 0 3 C0 2.01 0 1.02 0 0 Z " fill="#484A4D" transform="translate(0,35)"/>
<path d="M0 0 C74.25 0 148.5 0 225 0 C225 0.99 225 1.98 225 3 C150.75 3 76.5 3 0 3 C0 2.01 0 1.02 0 0 Z " fill="#A2A3A4" transform="translate(0,62)"/>
<path d="M0 0 C74.25 0 148.5 0 225 0 C225 0.99 225 1.98 225 3 C150.75 3 76.5 3 0 3 C0 2.01 0 1.02 0 0 Z " fill="#929598" transform="translate(0,32)"/>
<path d="M0 0 C74.25 0 148.5 0 225 0 C225 0.99 225 1.98 225 3 C150.75 3 76.5 3 0 3 C0 2.01 0 1.02 0 0 Z " fill="#919497" transform="translate(0,38)"/>
<path d="M0 0 C74.25 0 148.5 0 225 0 C225 0.99 225 1.98 225 3 C150.75 3 76.5 3 0 3 C0 2.01 0 1.02 0 0 Z " fill="#939699" transform="translate(0,12)"/>
</svg>
