<svg width="48" height="48" viewBox="0 0 48 48" fill="none" xmlns="http://www.w3.org/2000/svg">
<path d="M22 34H26V22H22V34ZM24 18C24.5667 18 25.042 17.808 25.426 17.424C25.8087 17.0413 26 16.5667 26 16C26 15.4333 25.8087 14.958 25.426 14.574C25.042 14.1913 24.5667 14 24 14C23.4333 14 22.9587 14.1913 22.576 14.574C22.192 14.958 22 15.4333 22 16C22 16.5667 22.192 17.0413 22.576 17.424C22.9587 17.808 23.4333 18 24 18ZM24 44C21.2333 44 18.6333 43.4747 16.2 42.424C13.7667 41.3747 11.65 39.95 9.85 38.15C8.05 36.35 6.62533 34.2333 5.576 31.8C4.52533 29.3667 4 26.7667 4 24C4 21.2333 4.52533 18.6333 5.576 16.2C6.62533 13.7667 8.05 11.65 9.85 9.85C11.65 8.05 13.7667 6.62467 16.2 5.574C18.6333 4.52467 21.2333 4 24 4C26.7667 4 29.3667 4.52467 31.8 5.574C34.2333 6.62467 36.35 8.05 38.15 9.85C39.95 11.65 41.3747 13.7667 42.424 16.2C43.4747 18.6333 44 21.2333 44 24C44 26.7667 43.4747 29.3667 42.424 31.8C41.3747 34.2333 39.95 36.35 38.15 38.15C36.35 39.95 34.2333 41.3747 31.8 42.424C29.3667 43.4747 26.7667 44 24 44Z" fill="#4e4e4e"/>
</svg>
