<svg width="48" height="48" viewBox="0 0 48 48" fill="none" xmlns="http://www.w3.org/2000/svg">
<rect x="9.60001" y="8" width="26.88" height="34" rx="2" stroke="#000" stroke-width="4"/>
<path d="M17.28 18H28.8" stroke="#000" stroke-width="4" stroke-linecap="round"/>
<path d="M17.28 26H28.8" stroke="#000" stroke-width="4" stroke-linecap="round"/>
<path d="M17.28 34H24.96" stroke="#000" stroke-width="4" stroke-linecap="round"/>
<path fill-rule="evenodd" clip-rule="evenodd" d="M41.5047 23.7659L43.2783 21.9184C43.7567 21.4201 43.9958 21.171 44.1303 20.9065C44.42 20.3369 44.42 19.6631 44.1303 19.0935C43.9958 18.829 43.7567 18.5798 43.2783 18.0816C42.7635 17.5453 42.5061 17.2772 42.231 17.1285C41.6376 16.8078 40.9224 16.8078 40.329 17.1285C40.0538 17.2772 39.7964 17.5453 39.2817 18.0816L37.6456 19.7858C38.5657 21.4173 39.8939 22.791 41.5047 23.7659ZM36.2092 21.2821L29.6196 28.1463C29.2126 28.5701 29.0092 28.7821 28.8761 29.0394C28.743 29.2966 28.6876 29.5851 28.5769 30.1622L27.9815 33.2632C27.9175 33.5964 27.8855 33.763 27.9809 33.8569C28.0762 33.9508 28.2423 33.9162 28.5745 33.847L31.4278 33.2525C32.0293 33.1272 32.33 33.0646 32.5946 32.9181C32.8593 32.7716 33.072 32.55 33.4975 32.1068L33.4975 32.1067L33.4975 32.1067L40.0907 25.2389C38.5225 24.214 37.1991 22.8617 36.2092 21.2821Z" fill="#000"/>
</svg>
