<svg width="48" height="48" viewBox="0 0 48 48" fill="none" xmlns="http://www.w3.org/2000/svg">
<path d="M32.9719 3.00656C31.35 4.27031 30.2719 5.93531 30.0562 7.55156C30.3562 7.62562 30.7219 7.70062 31.1531 7.7475C31.9312 7.84125 32.8687 7.88812 33.8062 7.88812C34.7437 7.88812 35.6906 7.84125 36.4594 7.7475C36.8719 7.70062 37.2281 7.635 37.5187 7.57031C37.3781 6.99562 37.0969 6.21844 36.6562 5.45062C36.1406 4.56094 35.4281 3.68531 34.6312 3.01687C34.4437 3.16406 34.1719 3.33656 33.8062 3.33656C33.4312 3.33656 33.1594 3.15562 32.9719 3.00656ZM6.03467 4.59937C4.40905 5.86312 3.33936 7.52812 3.12374 9.14437C3.41717 9.21937 3.78092 9.29437 4.21405 9.34125C4.99124 9.43125 5.92967 9.47812 6.86717 9.47812C7.80467 9.47812 8.74874 9.43125 9.51561 9.34125C9.92811 9.29437 10.2844 9.22875 10.575 9.16312C10.4344 8.58844 10.1531 7.81125 9.71249 7.04344C9.19874 6.15375 8.48999 5.27812 7.6903 4.60969C7.50561 4.75687 7.23842 4.92937 6.86999 4.92937C6.49311 4.92937 6.21842 4.74844 6.03467 4.59937ZM31.5562 9.4875V11.1562C31.6125 11.2031 31.7437 11.2781 31.95 11.3531C32.1469 11.4187 32.4094 11.475 32.6906 11.5219C32.8125 10.7156 33.1875 9.70312 33.8062 9.70312C34.425 9.70312 34.8 10.7156 34.9219 11.5125C35.2031 11.475 35.4562 11.4187 35.6625 11.3531C35.8687 11.2781 36 11.2031 36.0562 11.1562V9.4875C35.3437 9.54375 34.575 9.57187 33.8062 9.57187C33.0375 9.57187 32.2687 9.54375 31.5562 9.4875ZM4.61999 11.0812V12.75C4.67342 12.7969 4.80374 12.8719 5.0128 12.9469C5.21436 13.0125 5.47124 13.0687 5.75436 13.1156C5.87905 12.3094 6.25311 11.2969 6.86999 11.2969C7.48686 11.2969 7.86186 12.3094 7.98561 13.1062C8.2678 13.0687 8.52186 13.0125 8.72155 12.9469C8.92686 12.8719 9.05811 12.7969 9.11436 12.75V11.0812C8.40374 11.1375 7.63686 11.1656 6.86717 11.1656C6.09749 11.1656 5.33061 11.1375 4.61999 11.0812ZM15.2344 12.7875C13.1531 14.3625 11.7844 16.4719 11.5594 18.5344C11.9344 18.6281 12.4125 18.7406 13.0219 18.8062C13.9594 18.9187 15.0937 18.975 16.2187 18.975C17.3437 18.975 18.4687 18.9187 19.4062 18.8062C20.0062 18.7406 20.4656 18.6375 20.8406 18.5344C20.7 17.8219 20.3344 16.8187 19.7625 15.8344C19.1156 14.7187 18.2156 13.6219 17.1937 12.8062C17.1656 12.825 17.1469 12.8531 17.1187 12.8719C16.9125 13.0406 16.6219 13.2281 16.2187 13.2281C15.8156 13.2281 15.525 13.0406 15.3187 12.8719L15.2344 12.7875ZM13.3687 20.5406V22.7906C13.3687 22.8 13.3687 22.7906 13.3969 22.8094C13.4719 22.875 13.6687 22.9969 13.95 23.0906C14.2031 23.175 14.5125 23.2406 14.8687 23.2969C14.9812 22.3125 15.4406 20.9813 16.2187 20.9813C16.9969 20.9813 17.4562 22.3125 17.5687 23.2969C17.925 23.2406 18.2344 23.175 18.4875 23.0906C18.7687 22.9969 18.9656 22.875 19.0406 22.8094C19.0687 22.7906 19.0687 22.8 19.0687 22.7906V20.5406C18.1781 20.625 17.2031 20.6625 16.2187 20.6625C15.2437 20.6625 14.2594 20.625 13.3687 20.5406ZM36.7687 20.6063C33.45 23.0063 31.2656 26.3437 31.0406 29.625C31.6125 29.8031 32.4937 29.9906 33.5156 30.1031C34.8844 30.2719 36.525 30.3469 38.1656 30.3469C39.8062 30.3469 41.4469 30.2719 42.8156 30.1031C43.8094 29.9906 44.6719 29.8125 45.2531 29.6344C45.1031 28.5281 44.55 26.9062 43.6031 25.275C42.6 23.55 41.1937 21.8344 39.5719 20.6063C39.4594 20.7 39.3375 20.8312 39.2344 20.925C38.9625 21.1406 38.6156 21.3563 38.1656 21.3563C37.7156 21.3563 37.3687 21.1406 37.0969 20.925C36.9937 20.8406 36.8719 20.7094 36.7687 20.6063ZM9.30186 26.8312C5.48436 29.5594 2.97467 33.4125 2.74405 37.1812C3.4078 37.3969 4.43249 37.6125 5.63249 37.7531C7.18124 37.9312 9.02999 38.025 10.875 38.025C12.7219 38.025 14.5687 37.9312 16.1156 37.7531C17.3062 37.6125 18.3281 37.3969 18.9937 37.1812C18.825 35.9156 18.1687 34.0312 17.0812 32.1656C15.9375 30.1969 14.325 28.2281 12.45 26.8312C12.3094 26.9719 12.15 27.1406 12.0094 27.2437C11.7094 27.4875 11.3437 27.7125 10.875 27.7125C10.4062 27.7125 10.0406 27.4875 9.74061 27.2437C9.59999 27.1406 9.44061 26.9625 9.30186 26.8312ZM33.675 31.8187V35.5312C33.675 35.5875 33.675 35.625 33.8437 35.7656C34.0031 35.9062 34.3312 36.0938 34.7625 36.2344C35.1656 36.3656 35.6531 36.4781 36.1781 36.5531C36.2719 35.1469 36.9375 32.8594 38.1656 32.8594C39.3937 32.8594 40.0594 35.1469 40.1531 36.5531C40.6781 36.4781 41.1656 36.3656 41.5687 36.2344C42 36.0938 42.3281 35.9062 42.4875 35.7656C42.6562 35.625 42.6562 35.5875 42.6562 35.5312V31.8187C41.2781 31.9687 39.7312 32.0344 38.1656 32.0344C36.6 32.0344 35.0531 31.9687 33.675 31.8187ZM5.72155 39.45V43.7437C5.72155 43.8375 5.73936 43.9125 5.9428 44.0906C6.14436 44.2594 6.52311 44.4656 7.01905 44.6344C7.47655 44.7844 8.03155 44.9062 8.63624 44.9906C8.71124 43.4344 9.44999 40.7437 10.875 40.7437C12.3 40.7437 13.0406 43.4344 13.1156 44.9906C13.725 44.9062 14.2781 44.7844 14.7375 44.6344C15.225 44.4656 15.6094 44.2594 15.8062 44.0906C16.0125 43.9125 16.0312 43.8375 16.0312 43.7437V39.45C14.4562 39.6281 12.6656 39.7125 10.875 39.7125C9.08624 39.7125 7.2928 39.6281 5.72155 39.45Z" fill="#555555"/>
</svg>
