<svg width="24" height="24" viewBox="0 0 24 24" fill="none" xmlns="http://www.w3.org/2000/svg">
<g id="fluent:phone-vertical-scroll-20-filled">
<rect id="Rectangle 4143" x="6" y="18" width="12" height="12" transform="rotate(-90 6 18)" fill="#D9D9D9"/>
<path id="Vector" d="M4.20039 18C3.723 18 3.26516 17.8104 2.9276 17.4728C2.59003 17.1352 2.40039 16.6774 2.40039 16.2L2.40039 7.8C2.40039 7.32261 2.59003 6.86477 2.9276 6.52721C3.26516 6.18964 3.723 6 4.20039 6L19.8004 6C20.2778 6 20.7356 6.18964 21.0732 6.52721C21.4107 6.86477 21.6004 7.32261 21.6004 7.8V16.2C21.6004 16.6774 21.4107 17.1352 21.0732 17.4728C20.7356 17.8104 20.2778 18 19.8004 18H4.20039ZM10.6252 9.1752C10.5695 9.11932 10.5032 9.07499 10.4304 9.04474C10.3575 9.0145 10.2793 8.99893 10.2004 8.99893C10.1215 8.99893 10.0433 9.0145 9.97043 9.04474C9.89754 9.07499 9.83133 9.11932 9.77559 9.1752L7.37559 11.5752C7.31971 11.6309 7.27538 11.6971 7.24514 11.77C7.21489 11.8429 7.19932 11.9211 7.19932 12C7.19932 12.0789 7.21489 12.1571 7.24514 12.23C7.27538 12.3029 7.31971 12.3691 7.37559 12.4248L9.77559 14.8248C9.83138 14.8806 9.8976 14.9248 9.97049 14.955C10.0434 14.9852 10.1215 15.0008 10.2004 15.0008C10.2793 15.0008 10.3574 14.9852 10.4303 14.955C10.5032 14.9248 10.5694 14.8806 10.6252 14.8248C10.681 14.769 10.7252 14.7028 10.7554 14.6299C10.7856 14.557 10.8011 14.4789 10.8011 14.4C10.8011 14.3211 10.7856 14.243 10.7554 14.1701C10.7252 14.0972 10.681 14.031 10.6252 13.9752L8.64879 12L10.6252 10.0248C10.6811 9.96906 10.7254 9.90285 10.7556 9.82996C10.7859 9.75707 10.8015 9.67892 10.8015 9.6C10.8015 9.52108 10.7859 9.44293 10.7556 9.37004C10.7254 9.29715 10.6811 9.23093 10.6252 9.1752ZM13.3756 14.8248C13.4313 14.8807 13.4975 14.925 13.5704 14.9553C13.6433 14.9855 13.7215 15.0011 13.8004 15.0011C13.8793 15.0011 13.9575 14.9855 14.0304 14.9553C14.1032 14.925 14.1695 14.8807 14.2252 14.8248L16.6252 12.4248C16.6811 12.3691 16.7254 12.3029 16.7556 12.23C16.7859 12.1571 16.8015 12.0789 16.8015 12C16.8015 11.9211 16.7859 11.8429 16.7556 11.77C16.7254 11.6971 16.6811 11.6309 16.6252 11.5752L14.2252 9.1752C14.1694 9.11941 14.1032 9.07516 14.0303 9.04497C13.9574 9.01478 13.8793 8.99924 13.8004 8.99924C13.7215 8.99924 13.6434 9.01478 13.5705 9.04497C13.4976 9.07516 13.4314 9.11941 13.3756 9.1752C13.3198 9.23099 13.2756 9.29721 13.2454 9.3701C13.2152 9.44299 13.1996 9.52111 13.1996 9.6C13.1996 9.67889 13.2152 9.75701 13.2454 9.8299C13.2756 9.90279 13.3198 9.96901 13.3756 10.0248L15.352 12L13.3756 13.9752C13.3197 14.0309 13.2754 14.0971 13.2451 14.17C13.2149 14.2429 13.1993 14.3211 13.1993 14.4C13.1993 14.4789 13.2149 14.5571 13.2451 14.63C13.2754 14.7029 13.3197 14.7691 13.3756 14.8248Z" fill="#4E4E4E"/>
</g>
</svg>
