<svg width="48" height="48" viewBox="0 0 48 48" fill="none" xmlns="http://www.w3.org/2000/svg">
<path d="M22 36C21.4333 36 20.958 35.808 20.574 35.424C20.19 35.04 19.9987 34.5653 20 34C20 33.4333 20.192 32.958 20.576 32.574C20.96 32.19 21.4347 31.9987 22 32H26C26.5667 32 27.042 32.192 27.426 32.576C27.81 32.96 28.0013 33.4347 28 34C28 34.5667 27.808 35.042 27.424 35.426C27.04 35.81 26.5653 36.0013 26 36H22ZM8.00001 16C7.43334 16 6.95801 15.808 6.57401 15.424C6.19001 15.04 5.99867 14.5653 6.00001 14C6.00001 13.4333 6.19201 12.958 6.57601 12.574C6.96001 12.19 7.43467 11.9987 8.00001 12H40C40.5667 12 41.042 12.192 41.426 12.576C41.81 12.96 42.0013 13.4347 42 14C42 14.5667 41.808 15.042 41.424 15.426C41.04 15.81 40.5653 16.0013 40 16H8.00001ZM14 26C13.4333 26 12.958 25.808 12.574 25.424C12.19 25.04 11.9987 24.5653 12 24C12 23.4333 12.192 22.958 12.576 22.574C12.96 22.19 13.4347 21.9987 14 22H34C34.5667 22 35.042 22.192 35.426 22.576C35.81 22.96 36.0013 23.4347 36 24C36 24.5667 35.808 25.042 35.424 25.426C35.04 25.81 34.5653 26.0013 34 26H14Z" fill="#000"/>
</svg>
