<svg width="48" height="48" viewBox="0 0 48 48" fill="none" xmlns="http://www.w3.org/2000/svg">
<g clip-path="url(#clip0_48_751)">
<path d="M21.26 28.2C22.0214 26.5268 23.1051 25.0199 24.449 23.7656C25.7929 22.5112 27.3707 21.5339 29.0924 20.8894C30.814 20.2449 32.6458 19.946 34.483 20.0096C36.3203 20.0731 38.127 20.498 39.8 21.26C41.4732 22.0214 42.9801 23.1051 44.2344 24.449C45.4888 25.7929 46.4661 27.3707 47.1106 29.0924C47.7551 30.814 48.054 32.6458 47.9904 34.483C47.9269 36.3203 47.502 38.127 46.74 39.8C45.6311 42.2481 43.8391 44.3241 41.5792 45.7787C39.3193 47.2332 36.6876 48.0046 34 48C28.6 48 23.66 44.88 21.34 40H2V36C2.12 33.72 3.68 31.86 6.68 30.36C9.68 28.86 13.44 28.08 18 28C19.14 28 20.22 28.1 21.26 28.2ZM18 8C20.24 8.06 22.12 8.84 23.62 10.34C25.12 11.84 25.86 13.72 25.86 16C25.86 18.28 25.12 20.16 23.62 21.66C22.12 23.16 20.24 23.9 18 23.9C15.76 23.9 13.88 23.16 12.38 21.66C10.88 20.16 10.14 18.28 10.14 16C10.14 13.72 10.88 11.84 12.38 10.34C13.88 8.84 15.76 8.06 18 8ZM34 44C36.6522 44 39.1957 42.9464 41.0711 41.0711C42.9464 39.1957 44 36.6522 44 34C44 31.3478 42.9464 28.8043 41.0711 26.9289C39.1957 25.0536 36.6522 24 34 24C31.3478 24 28.8043 25.0536 26.9289 26.9289C25.0536 28.8043 24 31.3478 24 34C24 36.6522 25.0536 39.1957 26.9289 41.0711C28.8043 42.9464 31.3478 44 34 44ZM32 28H35V33.64L39.88 36.46L38.38 39.06L32 35.38V28Z" fill="#D9D9D9"/>
</g>
<defs>
<clipPath id="clip0_48_751">
<rect width="48" height="48" fill="white"/>
</clipPath>
</defs>
</svg>
